<svg xmlns="http://www.w3.org/2000/svg" id="a" viewBox="0 0 254.05 328.34">
    <defs>
        <style>
            .c{fill:#d37f1c}.d{fill:#fff}
        </style>
    </defs>
    <path d="m108.42 302.88-25.2 21.55-20.39-10.58-20.39-35.35-8.86-27.22 36.34 4.38 13.3 27.38 4.75 10.2 20.45 9.64z" style="fill:#3c3b63"/>
    <path d="M198.19 60.77c4.54-1.28 8.69-3.87 13.21-5.28 43.74-13.62 54.13 27.07 29.81 55.81-16.39 19.37-47.69 28.79-72.57 27.52-3.97-.2-10.46-2.23-13.91-2.01-1.01.06-18.76 5.34-19.36 6.17-.38.53-1.95 8.14-3.01 10.48-2.63 5.8-7.98 11.41-10.98 17.02-9.48 17.7-2.54 33.33-18.23 51.77-1.48 1.74-6.53 5.39-6.8 6.2-.9 2.63.29 7.26-.39 10.61-1.93 9.54-11.56 15.72-20.78 15.73 2.41 15.73 11.47 32.05 26.12 39.38 3.43 1.72 13.59 3.62 13.95 7.13.48 4.59-5.04 2.79-5.08 6.47h-.97c-.4-2.75-7.11-3.48-10.39-5.12-9.31-4.64-17.58-13.31-22.8-22.2-1.45-2.47-10.1-20.58-8.84-21.67.53-.46 3.33.97 3.01-.99-11.22 1.83-21.92 1.05-32.99-1-.08 1.65 1.91.84 2.82 2.66 2.95 5.95 4.07 18.42 7.68 26.33 8.33 18.3 23.96 30.29 43.04 35.94-.12 16.03-24.74-1.47-30.55-6.44-16.9-14.43-26.21-37.71-27.98-59.51h3.98c-12.08-3.32-20.78-12.05-18.9-25.42.35-2.47 2.91-6.67 2.7-7.91-.26-1.5-5.4-9.83-6.51-13.46-8.97-29.33 2.91-58.92 32.92-68.51 1.03-.33 8.15-.54 5.8-2.69-.54-.49-11.24-3.62-13.68-4.83C16.91 122.13-2.64 97.8.29 72.38 4.24 38.15 43.62 43.7 65.62 56.74 76.76 32.18 84.59-8.28 120.96 1.49c4.84 1.3 12.7 6.5 16.12 6.81 2.74.25 11.23-5.92 16.6-6.53 35.19-4.03 39.84 32.86 44.51 59Zm-71.01-46.99C101.99 0 91.86 17.15 82.72 37.8c-2.98 6.74-10.49 25.38-11.11 31.91-.24 2.53 9.86 6.94 12.3 7.83 15.73 5.77 37.13 6.98 53.82 6.27 6.55-.28 25.07-1.56 30.5-3.5 5.93-2.11 14.58-12.23 21.48-14.53 2.01-3.2-5.64-29.46-7.51-34.53-4.27-11.56-10.72-23.48-25.28-21.24-10.86 1.67-30.16 19.12-40.66 12.18-8.01-5.3 9.7-4.68 10.92-8.41Zm-2 100c-17.07.5-34.35 0-50.52-5.99-12.12-4.49-17.72-7.35-16.2-21.25.45-4.16 5.11-17.92 4.58-20.09-1.18-4.82-26.11-11.64-31.34-11.75-28.39-.63-25.48 30.79-14.33 48.39 8.37 13.21 27.29 25.89 42.77 28.23 9.74 1.47 11.6-4.19 19.54-7.56s11.46-3.45 19.31-1.29c2.7.74 6 3.5 8.46 3.13 4.12-.62 14.58-8.59 17.74-11.82h-.01Zm47.01 15.98c27.7 1.47 67.67-14.19 72.55-44.94 5.4-34.07-28.69-23.3-46.57-13.57-31.11 16.92-54.32 45.92-85.98 61.54-.46.61 1.22 4.45 2.43 4.64 1.86.3 11.08-1.46 13.77-1.96 25-4.66 47.47-17.65 71.31-25.78 5.23-.02 3.92 4.49.42 6.51l-27.93 13.56Zm-101.01 11c13.25 2.86 19.52 13.96 20.9 26.62.19 1.7-2.33 6.33 1.75 4.56 11.23-4.85 17.6-26.01 9.87-36.2-6.68-8.8-15.71-7.16-24.45-2.39-1.44.79-9.56 5.75-8.08 7.41h.01Zm56 4.02-12.06 1.43c-1.4 10.5-4.47 23.84-14.24 29.76-3.36 2.04-8.47 2.45-10.27 3.73-1.42 1.01-3.21 5.93-4.9 8.1-2.51 3.21-10.35 7.83-11.08 8.99-.67 1.07 2.05 17.38-3.05 18.89-5.43 1.62-2.26-6.84-2.31-9.41-.06-2.95-1.06-5.59-1.1-8.5-9.26 4.03-16.24 8.22-25.49 1-3.28-2.56-12.14-17.46-6.98-18.99 3.7-1.1 6.51 7.07 8.48 9.49 9.02 11.13 19.99 5.58 21.78-7.26 2.39-17.15-23.54-31.96-36.8-21.76-19.13 14.7-12.71 57.02 7.7 69.34 2.49 1.5 9.08 3.48 10.1 4.41s1.1 4.45-.44 4.82c-6.14 1.49-16.54-4.68-20.85-9.03-5.11 6.95 3.44 14.84 9.5 17.48 14.32 6.25 51.8 6.13 54-14.5-3.62 1.39-11.26-1.37-8.1-5.35.41-.52 8.82-2.88 12.01-5.25 15.61-11.57 14.31-27.29 17.19-43.81 2.24-12.79 12.8-21.65 16.89-33.6l.02.02Zm-56 43.98c5-.41 10.27-7.31 11.72-11.77 5.94-18.36-7.75-32.53-26.1-31.09-1.56.12-12.16 2.44-12.62 2.89-1.69 1.67.28 1.69 1.49 1.97 19.19 4.34 31.58 17.74 25.5 38.01h.01Z"/>
    <path d="M127.18 13.78c-1.22 3.73-18.93 3.11-10.92 8.41 10.5 6.94 29.8-10.51 40.66-12.18 14.56-2.24 21.01 9.68 25.28 21.24 1.87 5.07 9.52 31.34 7.51 34.53-6.9 2.3-15.55 12.42-21.48 14.53-5.43 1.93-23.95 3.22-30.5 3.5-16.69.71-38.09-.49-53.82-6.27-2.44-.9-12.54-5.3-12.3-7.83.62-6.53 8.12-25.16 11.11-31.91C91.86 17.15 102 0 127.18 13.78Z" class="c"/>
    <path d="M127.18 144.78c-4.09 11.95-14.65 20.81-16.89 33.6-2.89 16.52-1.58 32.24-17.19 43.81-3.19 2.37-11.59 4.73-12.01 5.25-3.17 3.98 4.48 6.73 8.1 5.35-2.2 20.62-39.69 20.75-54 14.5-6.06-2.65-14.61-10.53-9.5-17.48 4.31 4.35 14.71 10.52 20.85 9.03 1.53-.37 1.43-3.91.44-4.82s-7.62-2.91-10.1-4.41c-20.41-12.32-26.83-54.64-7.7-69.34 13.27-10.2 39.19 4.61 36.8 21.76-1.79 12.84-12.76 18.39-21.78 7.26-1.97-2.42-4.77-10.59-8.48-9.49-5.16 1.53 3.7 16.43 6.98 18.99 9.25 7.22 16.23 3.03 25.49-1 .04 2.91 1.04 5.55 1.1 8.5.05 2.57-3.13 11.02 2.31 9.41 5.1-1.51 2.38-17.82 3.05-18.89.73-1.16 8.56-5.78 11.08-8.99 1.69-2.17 3.48-7.09 4.9-8.1 1.8-1.28 6.91-1.7 10.27-3.73 9.77-5.92 12.84-19.26 14.24-29.76l12.06-1.43-.02-.02Z" class="d"/>
    <path d="m172.19 129.76 27.93-13.56c3.51-2.02 4.81-6.53-.42-6.51-23.85 8.14-46.31 21.12-71.31 25.78-2.69.5-11.91 2.25-13.77 1.96-1.21-.19-2.89-4.03-2.43-4.64 31.65-15.62 54.86-44.62 85.98-61.54 17.89-9.72 51.97-20.5 46.57 13.57-4.88 30.75-44.85 46.41-72.55 44.94Zm-47.01-15.98c-3.16 3.23-13.62 11.21-17.74 11.82-2.46.37-5.77-2.39-8.46-3.13-7.85-2.16-11.77-1.91-19.31 1.29-7.95 3.37-9.8 9.03-19.54 7.56-15.48-2.33-34.4-15.02-42.77-28.23C6.21 85.49 3.3 54.06 31.69 54.7c5.24.12 30.16 6.94 31.34 11.75.53 2.17-4.12 15.93-4.58 20.09-1.51 13.9 4.08 16.76 16.2 21.25 16.17 5.99 33.45 6.49 50.52 5.99h.01Z" class="c"/>
    <path d="M71.18 140.76c-1.48-1.66 6.64-6.62 8.08-7.41 8.74-4.76 17.77-6.41 24.45 2.39 7.73 10.19 1.35 31.35-9.87 36.2-4.09 1.77-1.57-2.86-1.75-4.56-1.38-12.66-7.65-23.76-20.9-26.62h-.01Z" class="d"/>
    <path d="M71.18 188.76c6.08-20.27-6.31-33.67-25.5-38.01-1.21-.27-3.19-.3-1.49-1.97.46-.45 11.06-2.77 12.62-2.89 18.35-1.44 32.03 12.74 26.1 31.09-1.44 4.46-6.72 11.37-11.72 11.77h-.01Z" class="d"/>
</svg>
