<?xml version="1.0" encoding="UTF-8"?><svg id="a" xmlns="http://www.w3.org/2000/svg" viewBox="0 0 809.88 658.63"><polygon points="462.45 490.11 75.84 490.11 18.55 457.8 11.74 115.04 18.55 44.51 64.47 13.89 680.15 13.89 732.88 54.07 732.88 348.75 761.79 459.5 591.71 615.97 462.45 490.11" style="fill:#f9f8f7;"/><polygon points="135.33 292.82 143.18 228.76 190.33 242.03 289.54 244.63 359.84 228.76 366.07 287.98 337.16 369.36 289.5 397.14 236.25 407.91 163.11 380.91 135.33 321.04 135.33 292.82" style="fill:#f6c58d;"/><path d="M601.83,279.34c124.22-8.73,223.54,92.44,206.04,217.04-23.12,164.62-234.55,220.35-338.81,90.14-93.62-116.92-16.85-296.66,132.77-307.18ZM707.76,381.27c-1.98.41-4.17,1.97-5.75,3.24l-109.23,108.76c-2.87,1.32-6.15,1.15-8.7-.79-14.76-12.01-28.33-31.67-43.02-42.98-5.61-4.31-9.93-4.93-15.95-.91-2.57,1.71-16.29,15.36-18.07,17.93-2.63,3.8-2.7,7.86-1.24,12.25l77.2,77.8c3.55,2.89,8.23,3.18,12.31,1.23l142.56-142.44c3.42-4.6,2.29-9.4-.82-13.84-1.82-2.61-15.48-16.19-18.08-17.92-3.66-2.44-6.75-3.25-11.21-2.34Z" style="fill:#23cc5b;"/><path d="M68.83.33l605.75-.33c37.63,2.57,67.15,31.32,71.33,68.67l-.64,227.1c-1.78,4.65-6.2,7.11-11.05,5.63-1.34-.41-12.03-7.8-13.11-8.92-4.21-4.35-3.24-16.03-3.1-21.98,1.32-56.48.46-114.19,1.08-170.92.39-35.7-2.89-65.01-44.5-71.58H71.49c-23.76,1.74-42.22,20.99-44.49,44.51v357.07c1.81,21.31,15.83,40,37.03,44.97,14.04,3.29,32.72,1.13,47.55,1.45,98.8,2.14,197.96.52,296.9,1.1,9.78,1.53,10.76,23.7,1.61,26.49l-337.59.49C34.74,501.49,4.37,471.93.05,434.53l-.05-366.02C3.44,32.23,32.68,3.81,68.83.33Z" style="fill:#020202;"/><path d="M372.05,262.1c7.75,51.36-3.37,104.86-50.09,133.37-45.19,27.57-114.23,25.16-156.4-7.44-37.68-29.13-46.5-80.39-39.62-125.31-26.47-14.57-50.1-30.75-62.76-59.32-9.98-22.51-12.41-53.98,14.17-65.55,22.09-9.62,43.62,5.18,61.2,17.17,4.53-11.67,6.52-24.62,10.23-36.74,8.21-26.83,23.38-66.56,57.64-64.1,17.75,1.27,27.46,14.47,47.16,12.9,11.4-.91,21.03-9.15,32.26-11.74,35.35-8.14,52.94,27.55,62.24,55.16,4.91,14.58,7.12,30.3,12.48,44.53,19.98-14.19,49.71-31.48,71.5-10.52,15.99,15.38,12.2,39.82,4.15,58.2-12.14,27.73-36.8,47.69-64.16,59.38ZM340.87,163.88c1.35-2.19-7.07-32.78-8.54-37.63-4.29-14.08-15.08-46.05-30.07-50.93-13.68-4.45-23.91,5.82-36,9.43-10.02,3-21.08,3.13-31.25.82-11-2.5-24.04-13.07-35.22-11.31-18.46,2.91-30.06,41.99-34.46,57.56-1.14,4.03-8.16,30.69-7.17,32.1,34.29,15.73,72.96,18.89,110.42,17.16,20.25-.94,40.43-4.63,59.44-11.57,4.17-1.52,8.43-4.37,12.86-5.63ZM302.72,208.62c-40.36,8.39-91.88,8.05-130.04-8.72-21.79-9.58-37.66-25.08-57.34-36.66-44.23-26.04-47.94,14.71-27.71,44.71,10.26,15.22,25.85,25.74,41.92,34.08.71-2.78,2.57-6.75,2.53-9.53-.06-3.75-3.44-6.34-1.82-11.76.76-2.54,5.54-5.73,8.27-5.74,3.89-.02,23.53,7.89,29.52,9.54,53.45,14.65,112.06,14.32,165.44-.56,5.32-1.48,24.52-9.26,27.95-8.93,5.85.55,8.62,5.96,7.57,11.45-.4,2.06-2.44,3.36-2.55,5.01-.06.84,1.26,6.63,1.61,8.03.7,2.8,2.45,1.58,4.71.74,23.41-8.76,58.58-48.82,49.79-75.25-6.2-18.65-29.41-7.07-40.43-.4-25.43,15.4-50.71,38.03-79.4,44ZM178.68,247.44c-9.53-2.9-19.12-5.57-28.64-8.4-8.56,34.47-11.29,72.93,4.8,105.7,32.03,65.24,150.05,67.07,186.37,3.98,18.2-31.63,16.36-74.47,6.76-108.63-1.64-1.2-25.3,7.84-29.7,8.68-38.59,7.33-103.06,9.78-139.59-1.32Z" style="fill:#020202;"/><path d="M487.77,115.27l164.77-.23c16.11,1.04,15.57,25.42,0,27l-163.93-.06c-11.84-1.65-12.15-24.42-.83-26.7Z"/><path d="M487.77,185.27l124.7-.17c14.76,2.28,12.75,27.5-2.95,26.92l-119.92-.05c-12.69-1.35-13.54-24.34-1.83-26.7Z" style="fill:#020202;"/><path d="M707.76,381.27c4.45-.91,7.55-.11,11.21,2.34,2.6,1.73,16.25,15.32,18.08,17.92,3.11,4.44,4.25,9.24.82,13.84l-142.56,142.44c-4.09,1.95-8.76,1.67-12.31-1.23l-77.2-77.8c-1.46-4.39-1.39-8.44,1.24-12.25,1.78-2.57,15.5-16.22,18.07-17.93,6.02-4.02,10.35-3.4,15.95.91,14.69,11.3,28.26,30.96,43.02,42.98,2.55,1.94,5.84,2.11,8.7.79l109.23-108.76c1.58-1.27,3.77-2.84,5.75-3.24Z" style="fill:#f9f8f7;"/><path d="M340.87,163.88c-4.43,1.26-8.69,4.11-12.86,5.63-19,6.93-39.18,10.63-59.44,11.57-37.47,1.73-76.13-1.43-110.42-17.16-1-1.41,6.03-28.07,7.17-32.1,4.4-15.57,16-54.64,34.46-57.56,11.18-1.76,24.22,8.81,35.22,11.31,10.17,2.31,21.23,2.18,31.25-.82,12.09-3.62,22.32-13.89,36-9.43,14.99,4.88,25.78,36.84,30.07,50.93,1.48,4.85,9.9,35.45,8.54,37.63Z" style="fill:#ad5922;"/><path d="M302.72,208.62c28.69-5.96,53.97-28.6,79.4-44,11.02-6.67,34.23-18.25,40.43.4,8.79,26.43-26.37,66.49-49.79,75.25-2.26.85-4.01,2.06-4.71-.74-.35-1.4-1.66-7.18-1.61-8.03.11-1.65,2.15-2.95,2.55-5.01,1.06-5.49-1.72-10.9-7.57-11.45-3.44-.32-22.64,7.45-27.95,8.93-53.38,14.88-111.99,15.2-165.44.56-5.99-1.64-25.63-9.56-29.52-9.54-2.73.02-7.51,3.2-8.27,5.74-1.62,5.42,1.77,8.01,1.82,11.76.04,2.78-1.82,6.75-2.53,9.53-16.07-8.34-31.66-18.86-41.92-34.08-20.23-30-16.51-70.75,27.71-44.71,19.68,11.59,35.55,27.08,57.34,36.66,38.16,16.78,89.69,17.12,130.04,8.72Z" style="fill:#ad5922;"/><ellipse cx="209.22" cy="288.2" rx="13.92" ry="20.03" style="fill:#020202;"/><ellipse cx="289.54" cy="289" rx="13.92" ry="20.03" style="fill:#020202;"/><path d="M203.08,337.61c-1.71,4.37,20.1,23.2,45.83,23.24,25.81.04,47.72-18.85,46.01-23.24-1.34-3.44-16.59,3.53-46.77,3.4-29.18-.12-43.76-6.75-45.07-3.4Z" style="fill:#020202;"/></svg>